<svg width="22" height="19" viewBox="0 0 22 19" fill="none" xmlns="http://www.w3.org/2000/svg">
<path d="M11.4255 14.3895L10.4953 15.3146C9.98641 15.8195 9.4761 16.3242 8.96433 16.8286C8.80309 17.0026 8.59288 17.1208 8.3629 17.1671C8.30604 17.1767 8.24771 17.179 8.16825 17.1872C8.16233 17.1275 8.15941 17.0675 8.1595 17.0075C8.18429 16.567 8.20908 16.1264 8.23678 15.6858C8.26521 15.2334 8.29729 14.7816 8.32645 14.3299C8.368 13.6754 8.41028 13.0209 8.44819 12.3656C8.45 12.2923 8.46714 12.2203 8.49845 12.1543C8.52976 12.0884 8.57452 12.03 8.62972 11.9832C9.71012 10.9977 10.7871 10.008 11.8607 9.0141L13.9194 7.11246L17.1606 4.12396C17.2642 4.02854 17.3735 3.93909 17.4705 3.83622C17.5332 3.76987 17.6119 3.68713 17.5572 3.58575C17.5077 3.49331 17.4078 3.48138 17.3108 3.48809C17.1286 3.5042 16.9533 3.56645 16.8005 3.66924C15.8572 4.27802 14.9148 4.88804 13.9734 5.49931C13.0232 6.11505 12.0709 6.7298 11.1164 7.34355C10.2902 7.87679 9.46517 8.41053 8.64138 8.94477C7.73813 9.52845 6.83343 10.1106 5.93309 10.7003C5.87877 10.738 5.81612 10.7611 5.75081 10.7678C5.68551 10.7744 5.61962 10.7643 5.55911 10.7383C5.00652 10.5534 4.45028 10.3798 3.89623 10.2008C3.41945 10.0468 2.94365 9.89174 2.46882 9.73569C1.92643 9.55827 1.38186 9.38607 0.841659 9.20269C0.602542 9.12144 0.379464 9.00739 0.267196 8.74872C0.246339 8.70301 0.234987 8.65337 0.233858 8.60294C0.232729 8.55251 0.241847 8.50239 0.260635 8.45576C0.334756 8.27962 0.458312 8.12993 0.615664 8.02563C0.84121 7.86659 1.08634 7.73875 1.34468 7.64545C1.89654 7.42182 2.45059 7.21086 3.00319 6.99393C3.48506 6.80384 3.96694 6.61525 4.44882 6.42292C4.98465 6.21047 5.51901 5.99354 6.05265 5.78109C6.60524 5.56342 7.16002 5.34948 7.71262 5.13255C8.64187 4.76927 9.5699 4.40425 10.4967 4.03749C11.3419 3.70502 12.1871 3.37156 13.0322 3.0371C13.6986 2.7747 14.3663 2.51529 15.0319 2.2514C15.731 1.97484 16.4273 1.69306 17.1264 1.41724C17.9334 1.09968 18.7419 0.784357 19.5525 0.466051C19.6721 0.419833 19.7865 0.360943 19.9076 0.316961C20.3406 0.167872 20.7904 0.196199 21.0682 0.606195C21.2365 0.861787 21.3015 1.17408 21.2497 1.47762C21.1943 1.85929 21.1104 2.23649 21.0353 2.61518C20.9624 2.97746 20.8895 3.33826 20.8166 3.69906C20.7335 4.10657 20.6502 4.51408 20.5666 4.92159C20.4798 5.34649 20.3953 5.77215 20.3063 6.19705C20.224 6.59214 20.1343 6.98573 20.0512 7.38157C19.9365 7.92823 19.8237 8.47489 19.7129 9.02155C19.6181 9.48745 19.5292 9.95485 19.4315 10.42C19.3149 10.9783 19.1895 11.5382 19.0721 12.0928C18.9686 12.5878 18.8738 13.0842 18.771 13.5785C18.6522 14.148 18.5275 14.7168 18.4065 15.2863C18.3263 15.6702 18.2607 16.0571 18.174 16.4402C18.0872 16.8234 18.0048 17.1939 17.8999 17.5644C17.8557 17.7061 17.7851 17.8377 17.6921 17.952C17.4377 18.2755 17.1366 18.3195 16.7444 18.2286C16.4802 18.1549 16.2341 18.0254 16.0219 17.8484C14.8924 16.9901 13.7608 16.1356 12.6269 15.2848C12.2478 14.998 11.8687 14.712 11.4896 14.4268C11.4772 14.4164 11.4605 14.4096 11.4255 14.3895Z" fill="#191E25"/>
</svg>
