<svg width="19" height="19" viewBox="0 0 19 19" fill="none" xmlns="http://www.w3.org/2000/svg">
<path d="M18.329 9.42739C18.329 11.0073 18.329 12.5848 18.329 14.1647C18.329 14.5812 18.2604 14.9902 18.1404 15.3919C17.9519 16.0239 17.6409 16.5873 17.2051 17.0821C16.7986 17.5451 16.3163 17.91 15.7605 18.1746C15.3834 18.3559 14.9892 18.4808 14.5778 18.5543C14.3134 18.6008 14.0465 18.6155 13.7771 18.6155C10.8022 18.6155 7.82721 18.6155 4.85224 18.6155C4.50455 18.6155 4.16175 18.5886 3.82386 18.5102C3.15296 18.3534 2.54327 18.0668 2.00459 17.6333C1.64711 17.3442 1.33615 17.0135 1.0766 16.6339C0.711769 16.0974 0.471812 15.5095 0.366525 14.8702C0.334695 14.6816 0.315106 14.4905 0.307761 14.297C0.300415 14.0962 0.300415 13.8953 0.300415 13.6944C0.300415 10.7183 0.300415 7.74458 0.300415 4.77087C0.300415 4.10215 0.430187 3.46038 0.714217 2.85535C1.10843 2.02007 1.70098 1.36115 2.4894 0.878596C2.86893 0.645893 3.27783 0.481776 3.70877 0.371548C3.97322 0.302961 4.245 0.263769 4.51924 0.244173C4.66125 0.234375 4.80082 0.234375 4.94284 0.234375C7.89822 0.234375 10.8511 0.234375 13.8065 0.234375C14.6292 0.234375 15.3956 0.442583 16.1033 0.86145C16.7864 1.26562 17.3251 1.81186 17.7242 2.49527C17.9421 2.87005 18.1013 3.27177 18.2041 3.69308C18.2873 4.03357 18.329 4.3814 18.329 4.73168C18.329 6.29692 18.329 7.86215 18.329 9.42739ZM1.71812 9.42249C1.71812 10.7256 1.71812 12.0288 1.71812 13.3295C1.71812 13.5279 1.72546 13.7263 1.75484 13.9222C1.89196 14.8114 2.28618 15.5634 2.94728 16.1709C3.66225 16.8249 4.50945 17.1654 5.48151 17.1678C8.03778 17.1727 10.5916 17.1678 13.1479 17.1678C13.3829 17.1678 13.618 17.1458 13.8482 17.0993C14.6684 16.9302 15.3662 16.5432 15.927 15.921C16.5709 15.2058 16.9064 14.3632 16.9088 13.398C16.9137 10.7673 16.9088 8.13405 16.9088 5.50327C16.9088 5.29017 16.8966 5.07706 16.8599 4.8664C16.6958 3.88905 16.2257 3.09295 15.4495 2.48058C14.759 1.93679 13.9681 1.67469 13.0916 1.67224C10.5549 1.67224 8.01819 1.67224 5.48151 1.67224C5.23176 1.67224 4.98201 1.69673 4.73716 1.75062C3.55941 2.01517 2.68774 2.68389 2.12702 3.74942C1.85279 4.27117 1.71812 4.82966 1.71812 5.41999C1.71812 6.75007 1.71812 8.08261 1.71812 9.41514V9.42249Z" fill="#191E25"/>
<path d="M9.311 14.0418C6.75962 14.0492 4.69061 11.9548 4.69796 9.41958C4.70285 6.87208 6.77921 4.7998 9.32324 4.8047C11.8746 4.81204 13.9363 6.88188 13.9314 9.43672C13.9265 12.0063 11.8281 14.0516 9.311 14.0418ZM9.31834 5.96087C9.12736 5.95597 8.93637 5.97311 8.75028 6.00741C7.9594 6.15193 7.29585 6.5267 6.77676 7.13908C6.10097 7.93517 5.82918 8.86354 5.9663 9.89968C6.08383 10.806 6.50253 11.5629 7.21505 12.1385C8.00348 12.7779 8.90944 13.0081 9.90844 12.8366C10.7018 12.6995 11.358 12.3075 11.8746 11.6927C12.5602 10.8746 12.8148 9.92418 12.6557 8.87089C12.5357 8.0699 12.1684 7.38893 11.5685 6.84269C10.9319 6.26216 10.1802 5.96821 9.31834 5.96087Z" fill="#191E25"/>
<path d="M14.0856 6.01972C13.3069 6.00993 12.6875 5.38285 12.6973 4.61125C12.7071 3.84456 13.3437 3.21993 14.1125 3.23463C14.9058 3.24933 15.5033 3.90824 15.4837 4.67249C15.4641 5.41469 14.8373 6.02952 14.088 6.01972H14.0856Z" fill="#191E25"/>
</svg>
