<svg width="288" height="103" viewBox="0 0 288 103" fill="none" xmlns="http://www.w3.org/2000/svg">
<path d="M167.126 0.541992H120.524V40.6554H167.126V0.541992Z" fill="white"/>
<path d="M120.524 31.2765L128.997 24.96V15.9639L138.618 8.33499L144.631 13.3663L154.034 5.90138L167.072 14.6241V0.541992H120.524V31.2765Z" fill="#C69E7F"/>
<path d="M121.89 40.6554L154.034 16.3193L167.099 24.878V30.8936L154.034 22.1709L129.516 40.6554H121.89Z" fill="#C69E7F"/>
<path d="M154.034 31.6045L167.126 40.6553H141.843L154.034 31.6045Z" fill="#C69E7F"/>
<path d="M154.034 40.6553H167.126L154.034 31.6045V40.6553Z" fill="#8A664E"/>
<path d="M138.618 8.33496L138.7 17.7959L144.659 13.3389L138.618 8.33496Z" fill="#8A664E"/>
<path d="M154.034 16.3193L167.126 24.878V30.8936L154.034 22.1709V16.3193Z" fill="#8A664E"/>
<path d="M154.034 5.90137V16.3194L167.126 24.878L167.072 14.6241L154.034 5.90137Z" fill="#C7C6C6"/>
<path d="M154.034 22.1709V31.6045L167.126 40.6553V30.8936L154.034 22.1709Z" fill="#C7C6C6"/>
<path d="M7.58401 71.1992V83.0118H14.5539C15.7019 74.6719 21.7698 70.3516 30.7623 70.3516C40.8482 70.3516 47.2168 75.793 47.2168 86.211C47.2168 96.629 40.9029 102.07 30.7623 102.07C21.7425 102.07 15.7566 97.7501 14.5539 89.4102H7.58401V101.223H0.204117V71.1719H7.58401V71.1992ZM39.8095 86.211C39.8095 80.1133 36.5569 76.7227 30.7623 76.7227C24.9678 76.7227 21.7151 80.25 21.7151 86.211C21.7151 92.1719 24.9951 95.672 30.7623 95.672C36.5296 95.672 39.8095 92.1993 39.8095 86.211Z" fill="#191E25"/>
<path d="M51.1527 71.1992H72.8004V77.5977H58.5053V101.223H51.1254V71.1719L51.1527 71.1992Z" fill="#191E25"/>
<path d="M119.922 101.25H112.542V82.6289L98.4386 101.25H91.0588V71.1992H98.4386V89.9571L112.542 71.1992H119.922V101.25Z" fill="#191E25"/>
<path d="M147.775 89.4376H133.042V101.25H125.662V71.1992H133.042V83.0118H147.775V71.1992H155.155V101.25H147.775V89.4376Z" fill="#191E25"/>
<path d="M160.922 101.25V71.1992H179.508C184.756 71.1992 189.157 73.5234 189.157 78.8555C189.157 82.4102 187.243 84.625 184.401 85.6641C187.817 86.5391 190.086 88.754 190.086 92.9649C190.086 98.461 185.931 101.25 180.437 101.25H160.949H160.922ZM168.302 77.625V83.3946H178.961C180.601 83.3946 181.804 82.1914 181.804 80.3868C181.804 78.5821 180.601 77.625 178.961 77.625H168.302ZM168.302 88.8086V94.8516H179.426C181.312 94.8516 182.597 93.9766 182.597 91.8438C182.597 89.711 181.312 88.8086 179.426 88.8086H168.302Z" fill="#191E25"/>
<path d="M194.815 71.1992H219.715V77.5977H202.167V83.2579H218.02V89.1915H202.167V94.8516H219.715V101.25H194.815V71.1992Z" fill="#191E25"/>
<path d="M256.86 91.8712C254.947 98.5704 249.262 102.043 241.171 102.043C231.113 102.043 224.744 96.629 224.744 86.211C224.744 75.793 231.058 70.3789 241.171 70.3789C249.508 70.3789 255.302 74.0703 257.079 81.2071L249.781 82.4375C248.661 78.7461 245.709 76.7774 241.171 76.7774C235.322 76.7774 232.206 80.2227 232.206 86.1836C232.206 92.1446 235.322 95.5899 241.171 95.5899C245.49 95.5899 248.415 93.7579 249.672 90.3946L256.888 91.8438L256.86 91.8712Z" fill="#191E25"/>
<path d="M270.39 77.625H260.66V71.2266H287.473V77.625H277.743V101.25H270.363V77.625H270.39Z" fill="#191E25"/>
</svg>
