<svg width="20" height="17" viewBox="0 0 20 17" fill="none" xmlns="http://www.w3.org/2000/svg">
<path d="M10.6419 13.3422L9.75738 14.2142C9.27352 14.6901 8.78829 15.1658 8.30166 15.6413C8.14834 15.8052 7.94846 15.9167 7.72977 15.9603C7.6757 15.9694 7.62024 15.9715 7.54468 15.9792C7.53905 15.923 7.53628 15.8665 7.53637 15.8099C7.55994 15.3947 7.5835 14.9794 7.60985 14.5641C7.63688 14.1376 7.66738 13.7118 7.69511 13.286C7.73462 12.6691 7.77483 12.0522 7.81087 11.4346C7.81259 11.3655 7.82889 11.2976 7.85866 11.2354C7.88843 11.1732 7.93099 11.1182 7.98348 11.0741C9.0108 10.1452 10.0349 9.21237 11.0557 8.27552L13.0133 6.48309L16.0953 3.66622C16.1937 3.57628 16.2977 3.49196 16.3899 3.395C16.4495 3.33246 16.5244 3.25447 16.4724 3.15891C16.4253 3.07178 16.3303 3.06054 16.2381 3.06687C16.0649 3.08205 15.8981 3.14073 15.7529 3.23761C14.8559 3.81143 13.9598 4.38642 13.0646 4.96258C12.1612 5.54296 11.2556 6.12241 10.348 6.70091C9.56236 7.20353 8.77789 7.70662 7.99457 8.21018C7.1357 8.76034 6.27544 9.3091 5.41934 9.86489C5.36768 9.90038 5.30811 9.92224 5.24601 9.9285C5.18392 9.93476 5.12126 9.92521 5.06372 9.90072C4.53828 9.72647 4.00937 9.56275 3.48254 9.39412C3.02918 9.24891 2.57676 9.10276 2.12525 8.95568C1.60951 8.78845 1.09169 8.62614 0.57803 8.45329C0.350661 8.3767 0.138541 8.2692 0.0317887 8.02538C0.011957 7.9823 0.00116274 7.93551 8.88589e-05 7.88798C-0.000985025 7.84045 0.00768481 7.79321 0.0255499 7.74925C0.0960304 7.58323 0.213516 7.44214 0.363138 7.34382C0.577603 7.19391 0.810691 7.07342 1.05634 6.98548C1.58109 6.77469 2.10792 6.57584 2.63337 6.37137C3.09157 6.1922 3.54978 6.01443 4.00798 5.83315C4.51748 5.6329 5.0256 5.42843 5.53302 5.22818C6.05847 5.02301 6.58599 4.82135 7.11143 4.61689C7.99503 4.27447 8.87748 3.93041 9.75876 3.58471C10.5624 3.27133 11.3661 2.95702 12.1697 2.64177C12.8033 2.39444 13.4383 2.14992 14.0712 1.90119C14.7359 1.64051 15.3979 1.37491 16.0627 1.11494C16.8301 0.815613 17.5988 0.518397 18.3697 0.218371C18.4834 0.174807 18.5922 0.119299 18.7073 0.0778434C19.119 -0.0626842 19.5467 -0.035984 19.8109 0.350467C19.9709 0.591382 20.0328 0.885736 19.9835 1.17185C19.9308 1.5316 19.8511 1.88714 19.7797 2.24408C19.7103 2.58556 19.641 2.92564 19.5717 3.26571C19.4927 3.64982 19.4134 4.03393 19.3339 4.41804C19.2514 4.81854 19.171 5.21975 19.0865 5.62025C19.0081 5.99265 18.9229 6.36364 18.8438 6.73674C18.7348 7.25201 18.6276 7.76728 18.5222 8.28255C18.4321 8.7217 18.3475 9.16225 18.2546 9.6007C18.1437 10.127 18.0245 10.6547 17.9129 11.1774C17.8144 11.644 17.7243 12.1119 17.6266 12.5778C17.5136 13.1146 17.3951 13.6507 17.28 14.1875C17.2037 14.5494 17.1413 14.914 17.0588 15.2752C16.9764 15.6364 16.898 15.9856 16.7982 16.3348C16.7562 16.4683 16.6891 16.5924 16.6006 16.7002C16.3587 17.0051 16.0724 17.0466 15.6995 16.9608C15.4483 16.8914 15.2143 16.7693 15.0125 16.6025C13.9385 15.7935 12.8624 14.9881 11.7843 14.1861C11.4238 13.9158 11.0634 13.6463 10.7029 13.3774C10.6911 13.3675 10.6752 13.3612 10.6419 13.3422Z" fill="white"/>
</svg>
