<svg width="260" height="30" viewBox="0 0 260 30" fill="none" xmlns="http://www.w3.org/2000/svg">
<path d="M33.8165 0H0V29.096H33.8165V0Z" fill="white"/>
<path d="M0 22.2931L6.12861 17.7115V11.1862L13.1299 5.65261L17.4933 9.30201L24.3161 3.88741L33.757 10.2144V0H0V22.2931Z" fill="#C69E7F"/>
<path d="M0.991699 29.0958L24.3161 11.4438L33.7966 17.6518V22.0152L24.3161 15.6883L6.5253 29.0958H0.991699Z" fill="#C69E7F"/>
<path d="M24.3161 22.5308L33.8165 29.0957H15.4703L24.3161 22.5308Z" fill="#C69E7F"/>
<path d="M24.3161 29.0957H33.8165L24.3161 22.5308V29.0957Z" fill="#8A664E"/>
<path d="M13.1299 5.65234L13.1894 12.5148L17.4933 9.28191L13.1299 5.65234Z" fill="#8A664E"/>
<path d="M24.3161 11.4438L33.8165 17.6518V22.0152L24.3161 15.6883V11.4438Z" fill="#8A664E"/>
<path d="M24.3161 3.88721V11.4438L33.8165 17.6518L33.757 10.2142L24.3161 3.88721Z" fill="#C7C6C6"/>
<path d="M24.3161 15.688V22.5306L33.8165 29.0956V22.0149L24.3161 15.688Z" fill="#C7C6C6"/>
<path d="M56.9029 4.26426V12.8324H61.9605C62.7935 6.78314 67.1966 3.64941 73.7219 3.64941C81.0405 3.64941 85.6618 7.59632 85.6618 15.153C85.6618 22.7096 81.0802 26.6565 73.7219 26.6565C67.1767 26.6565 62.8332 23.5228 61.9605 17.4735H56.9029V26.0417H51.5478V4.26426H56.9029ZM80.2868 15.153C80.2868 10.73 77.9266 8.27067 73.7219 8.27067C69.5171 8.27067 67.1569 10.8292 67.1569 15.153C67.1569 19.4767 69.537 22.0154 73.7219 22.0154C77.9068 22.0154 80.2868 19.4965 80.2868 15.153Z" fill="white"/>
<path d="M88.5178 4.26416H104.226V8.90525H93.8531V26.0614H88.498V4.26416H88.5178Z" fill="white"/>
<path d="M138.419 26.0614H133.064V12.5348L122.83 26.0416H117.475V4.26416H122.83V17.8701L133.064 4.26416H138.419V26.0614Z" fill="white"/>
<path d="M158.63 17.4734H147.94V26.0416H142.584V4.26416H147.94V12.8323H158.63V4.26416H163.985V26.0614H158.63V17.4932V17.4734Z" fill="white"/>
<path d="M168.19 26.0614V4.26416H181.677C185.485 4.26416 188.678 5.95002 188.678 9.8176C188.678 12.396 187.29 14.0025 185.227 14.7562C187.706 15.3909 189.352 16.9974 189.352 20.0518C189.352 24.0384 186.338 26.0614 182.351 26.0614H168.21H168.19ZM173.545 8.92508V13.11H181.28C182.47 13.11 183.343 12.2373 183.343 10.9283C183.343 9.61926 182.47 8.92508 181.28 8.92508H173.545ZM173.545 17.0371V21.4203H181.617C182.986 21.4203 183.918 20.7856 183.918 19.2386C183.918 17.6916 182.986 17.0371 181.617 17.0371H173.545Z" fill="white"/>
<path d="M192.784 4.26416H210.852V8.90525H198.119V13.0108H209.622V17.3147H198.119V21.4203H210.852V26.0614H192.784V4.26416Z" fill="white"/>
<path d="M237.806 19.2582C236.418 24.1175 232.292 26.6364 226.422 26.6364C219.123 26.6364 214.501 22.7093 214.501 15.1527C214.501 7.59602 219.083 3.66895 226.422 3.66895C232.471 3.66895 236.676 6.3465 237.965 11.5231L232.669 12.4156C231.856 9.73806 229.714 8.31003 226.422 8.31003C222.177 8.31003 219.916 10.8091 219.916 15.1328C219.916 19.4566 222.177 21.9556 226.422 21.9556C229.555 21.9556 231.677 20.6268 232.59 18.1872L237.826 19.2384L237.806 19.2582Z" fill="white"/>
<path d="M247.604 8.90525H240.543V4.26416H260V8.90525H252.939V26.0614H247.584V8.90525H247.604Z" fill="white"/>
</svg>
