<svg width="18" height="18" viewBox="0 0 18 18" fill="none" xmlns="http://www.w3.org/2000/svg">
<path d="M0 2.07627C0 1.95179 0 1.8273 0 1.70282C0 1.2821 0.246737 0.960517 0.659504 0.863695C1.4124 0.685036 2.16645 0.513292 2.91934 0.339244C3.38169 0.232048 3.84172 0.121395 4.30637 0.0222676C4.73644 -0.068791 5.11 0.1237 5.29332 0.521361C5.39479 0.742668 5.48818 0.968585 5.58387 1.19335C6.04276 2.26415 6.50049 3.33496 6.95938 4.40461C7.13348 4.81034 7.03893 5.19762 6.69419 5.47887C6.03469 6.0183 5.37749 6.55889 4.71568 7.09602C4.62921 7.16633 4.62575 7.22512 4.67302 7.31963C5.20685 8.39389 5.8629 9.38401 6.66422 10.2773C7.7999 11.5441 9.12698 12.5561 10.6547 13.3064C10.7711 13.3629 10.8334 13.3583 10.9187 13.2534C11.4618 12.5803 12.0117 11.9118 12.5617 11.2432C12.7923 10.9631 13.1889 10.8663 13.5417 11.015C14.2969 11.3331 15.0498 11.6582 15.8027 11.9809C16.3481 12.2149 16.8934 12.45 17.44 12.6829C17.8642 12.8638 18.0764 13.2465 17.9749 13.6995C17.7005 14.9155 17.4192 16.1316 17.1356 17.3453C17.0445 17.7372 16.702 18 16.2985 18C13.9487 18.0012 11.7027 17.517 9.56165 16.5477C7.82526 15.7604 6.27797 14.6977 4.91169 13.3675C3.66762 12.155 2.64493 10.781 1.839 9.24454C1.00309 7.64814 0.451968 5.95837 0.178712 4.17754C0.0714847 3.48134 0.00230596 2.78169 0 2.07627Z" fill="#D3A07D"/>
</svg>
