<svg width="23" height="18" viewBox="0 0 23 18" fill="none" xmlns="http://www.w3.org/2000/svg">
<path d="M11.0369 17.9986C8.93 17.9986 6.82305 18.0012 4.7161 17.9986C3.84373 17.9986 3.16777 17.6236 2.73159 16.8505C2.46886 16.3804 2.40764 15.8744 2.48671 15.3427C2.5964 14.6132 2.69843 13.8837 2.80301 13.1542C2.88209 12.6071 2.94075 12.0549 3.04534 11.5129C3.18563 10.7808 3.65497 10.3211 4.35389 10.1156C4.90996 9.95374 5.46348 9.79962 5.98129 9.52992C7.08068 8.95712 7.74643 8.0581 7.99386 6.84058C8.04743 6.57344 8.08059 6.30117 8.10609 6.03147C8.11375 5.95184 8.14691 5.92615 8.21833 5.91331C8.69022 5.83882 9.16212 5.79515 9.63912 5.76947C10.236 5.73864 10.8329 5.7181 11.4298 5.73094C12.246 5.75149 13.0648 5.77204 13.8734 5.91074C13.9499 5.92358 13.9857 5.94927 13.9933 6.03403C14.0392 6.54519 14.1208 7.04864 14.302 7.52897C14.6718 8.51018 15.3682 9.17802 16.2967 9.61982C16.7584 9.84072 17.2456 9.97686 17.7379 10.1079C18.4852 10.3082 18.9979 10.9272 19.0923 11.6953C19.1688 12.3348 19.2734 12.9693 19.3602 13.6063C19.452 14.2973 19.5999 14.9857 19.6331 15.6817C19.6714 16.4369 19.3729 17.0688 18.776 17.5414C18.3628 17.8702 17.8833 17.9961 17.3629 17.9986C15.2508 17.9986 13.1413 17.9986 11.0293 17.9986H11.0369ZM11.0599 9.65578C9.61361 9.64807 8.27955 10.7834 8.277 12.4119C8.27445 14.0173 9.5881 15.1706 11.0446 15.1757C12.5062 15.1834 13.8377 14.0276 13.8352 12.4119C13.8301 10.7834 12.4934 9.65064 11.0625 9.65578H11.0599Z" fill="#D3A07D"/>
<path d="M22.0893 5.02468C22.0995 5.53424 22.0637 6.03855 21.9459 6.53498C21.8256 7.03142 21.6132 7.47269 21.2011 7.78788C20.9042 8.01377 20.5663 8.13197 20.2054 8.15824C19.2533 8.22915 18.3395 8.03741 17.4539 7.69595C17.1161 7.56462 16.814 7.36762 16.5837 7.07081C16.3252 6.73723 16.2407 6.34324 16.2074 5.93086C16.1793 5.57889 16.1818 5.22693 16.1895 4.87759C16.1946 4.62543 16.0897 4.43106 15.908 4.27346C15.5727 3.98453 15.1682 3.85583 14.7536 3.75339C14.2289 3.62206 13.6914 3.55377 13.1539 3.50649C12.5396 3.45133 11.9279 3.4382 11.311 3.42769C10.7121 3.41981 10.1132 3.42769 9.51422 3.46446C8.70284 3.51437 7.89403 3.58529 7.10825 3.82168C6.77551 3.9215 6.45044 4.04757 6.18169 4.2866C6.00764 4.43894 5.90782 4.62543 5.91038 4.86971C5.91294 5.19803 5.90526 5.52373 5.89758 5.85206C5.87711 6.75562 5.46246 7.36762 4.64597 7.7012C4.12638 7.91396 3.5812 8.02953 3.03089 8.11096C2.74679 8.15298 2.46012 8.19238 2.17089 8.17925C1.65898 8.15824 1.17523 8.05054 0.775937 7.68807C0.420161 7.365 0.240993 6.93948 0.133492 6.4772C0.0541461 6.13574 0.0183125 5.7864 0.0106339 5.43443C0.00551476 5.15601 -0.00728295 4.87759 0.00551476 4.59654C0.0157529 4.32862 0.0899797 4.08697 0.217957 3.85846C0.473911 3.40405 0.834807 3.04683 1.2341 2.72901C2.07874 2.05397 3.02834 1.58118 4.024 1.19769C5.16043 0.759043 6.3327 0.467488 7.53313 0.275745C8.30099 0.152294 9.07398 0.0761215 9.85208 0.0340956C10.5713 -0.00530376 11.2905 -0.010557 12.0098 0.0183358C13.5916 0.086628 15.1529 0.302011 16.6809 0.732777C17.7201 1.02696 18.726 1.40519 19.6756 1.93577C20.3027 2.28774 20.8965 2.68961 21.4007 3.21756C21.6592 3.49073 21.8845 3.79016 22.015 4.15526C22.1174 4.43894 22.0816 4.73049 22.0893 5.01942V5.02468Z" fill="#D3A07D"/>
</svg>
