<svg width="17" height="18" viewBox="0 0 17 18" fill="none" xmlns="http://www.w3.org/2000/svg">
<path d="M17 8.74785C17 10.2261 17 11.7021 17 13.1803C17 13.5699 16.9358 13.9527 16.8235 14.3285C16.6471 14.9198 16.356 15.447 15.948 15.9099C15.5676 16.3431 15.1161 16.6846 14.5958 16.9321C14.2429 17.1017 13.8739 17.2186 13.4889 17.2873C13.2413 17.3309 12.9915 17.3446 12.7394 17.3446C9.95481 17.3446 7.17019 17.3446 4.38558 17.3446C4.06013 17.3446 3.73927 17.3194 3.42299 17.2461C2.79502 17.0994 2.22435 16.8313 1.72014 16.4256C1.38553 16.1552 1.09446 15.8458 0.851521 15.4905C0.510033 14.9886 0.285431 14.4386 0.18688 13.8404C0.157086 13.6639 0.138751 13.4851 0.131876 13.3041C0.125 13.1161 0.125 12.9282 0.125 12.7403C0.125 9.95567 0.125 7.17334 0.125 4.39102C0.125 3.76534 0.246469 3.16487 0.512325 2.59878C0.881315 1.81725 1.43595 1.20074 2.17393 0.749245C2.52917 0.531518 2.91191 0.377963 3.31528 0.274829C3.5628 0.210657 3.81719 0.173987 4.07388 0.155652C4.20681 0.146484 4.33745 0.146484 4.47038 0.146484C7.23666 0.146484 10.0006 0.146484 12.7669 0.146484C13.537 0.146484 14.2543 0.341293 14.9167 0.733202C15.5561 1.11136 16.0603 1.62245 16.4339 2.26188C16.6379 2.61253 16.7869 2.9884 16.8831 3.3826C16.961 3.70117 17 4.02661 17 4.35435C17 5.81885 17 7.28335 17 8.74785ZM1.45199 8.74327C1.45199 9.96254 1.45199 11.1818 1.45199 12.3988C1.45199 12.5844 1.45887 12.7701 1.48637 12.9534C1.61471 13.7854 1.9837 14.489 2.60251 15.0574C3.27173 15.6693 4.06472 15.9879 4.97459 15.9901C7.36729 15.9947 9.75771 15.9901 12.1504 15.9901C12.3704 15.9901 12.5905 15.9695 12.8059 15.926C13.5737 15.7678 14.2268 15.4057 14.7517 14.8236C15.3544 14.1544 15.6684 13.366 15.6707 12.463C15.6753 10.0015 15.6707 7.53775 15.6707 5.07629C15.6707 4.87689 15.6593 4.6775 15.6249 4.4804C15.4713 3.56595 15.0313 2.82109 14.3048 2.24812C13.6585 1.73933 12.9182 1.4941 12.0977 1.49181C9.72333 1.49181 7.34896 1.49181 4.97459 1.49181C4.74082 1.49181 4.50705 1.51473 4.27786 1.56515C3.17547 1.81267 2.35957 2.43835 1.83473 3.43531C1.57804 3.92348 1.45199 4.44602 1.45199 4.99836C1.45199 6.24284 1.45199 7.48962 1.45199 8.73639V8.74327Z" fill="white"/>
<path d="M8.5591 13.0655C6.17098 13.0724 4.23435 11.1128 4.24123 8.74073C4.24581 6.35719 6.18931 4.41828 8.57056 4.42286C10.9587 4.42974 12.8884 6.36636 12.8839 8.75678C12.8793 11.1609 10.9151 13.0747 8.5591 13.0655ZM8.56598 5.50462C8.38721 5.50004 8.20845 5.51608 8.03427 5.54817C7.29399 5.68339 6.6729 6.03404 6.18702 6.60701C5.55447 7.35186 5.30007 8.22048 5.42842 9.18994C5.53842 10.0379 5.93033 10.7461 6.59727 11.2847C7.33525 11.8829 8.18324 12.0983 9.11832 11.9379C9.86088 11.8095 10.4751 11.4428 10.9587 10.8676C11.6004 10.1021 11.8388 9.21286 11.6898 8.22736C11.5775 7.47792 11.2337 6.84078 10.6722 6.32969C10.0763 5.78652 9.37272 5.5115 8.56598 5.50462Z" fill="white"/>
<path d="M13.0282 5.56019C12.2994 5.55102 11.7195 4.9643 11.7287 4.24237C11.7379 3.52501 12.3337 2.94059 13.0534 2.95434C13.7959 2.96809 14.3552 3.5846 14.3368 4.29966C14.3185 4.9941 13.7318 5.56936 13.0305 5.56019H13.0282Z" fill="white"/>
</svg>
